<svg xmlns="http://www.w3.org/2000/svg" id="Layer_2" data-name="Layer 2" viewBox="0 0 625 625.19" fill="white">
    <g id="Layer_3" data-name="Layer 3">
        <g>
            <path
                d="m625,416.4v126.33H17v65.46h105.56v12.97c-3.15,2.65-4.84,4.03-4.84,4.03H0v-99.46h608v-92.33h-98.16v-17h115.16Z" />
            <path
                d="m474.92,186.99l-68.98,46.54,51.39-4.59c-51.91,108.56-152.3,219.89-230.52,296.79-5.98,5.87-11.82,11.55-17.51,17-41.72,40.04-74.77,68.36-86.74,78.43-3.15,2.65-4.84,4.03-4.84,4.03,0,0,.03-.24.06-.64.22-1.81.93-7.48,2.17-16.36,2-14.34,5.41-37.06,10.44-65.46.97-5.46,2-11.13,3.09-17C167.1,344.88,259.62-17.69,459.18.67c40.91,52.55,40.07,117.86,15.74,186.32Z" />
        </g>
    </g>
</svg>